<svg width="12" height="24" viewBox="0 0 12 24" fill="none" xmlns="http://www.w3.org/2000/svg">
<path d="M11.8893 0.17812V3.9853H9.72823C9.44178 3.94694 9.1508 3.9736 8.87505 4.06347C8.5993 4.15335 8.34523 4.30434 8.13008 4.50619L8.13199 4.50419C7.82271 4.95882 7.67672 5.51336 7.71981 6.06985V6.06186V8.78727H11.7548L11.2205 13.0564H7.72553V24H3.51117V13.0554H0V8.78727H3.51117V5.64295C3.46553 4.88351 3.56917 4.12234 3.81568 3.40658C4.06219 2.69082 4.44631 2.03571 4.94426 1.48184L4.9414 1.48484C5.44964 0.980203 6.05042 0.589015 6.70729 0.335004C7.36415 0.0809939 8.06342 -0.0305441 8.76266 0.00715669H8.75026C9.83631 -0.0116158 10.9223 0.0501921 12 0.192117L11.8884 0.18012L11.8893 0.17812Z" fill="#ACD2C7"/>
</svg>
