<svg width="21" height="22" viewBox="0 0 21 22" fill="none" xmlns="http://www.w3.org/2000/svg">
<path d="M10.4972 7.49851C8.56916 7.49851 6.99575 9.07195 6.99575 11C6.99575 12.9281 8.56916 14.5015 10.4972 14.5015C12.4252 14.5015 13.9986 12.9281 13.9986 11C13.9986 9.07195 12.4252 7.49851 10.4972 7.49851ZM20.9988 11C20.9988 9.55002 21.012 8.11317 20.9305 6.66582C20.8491 4.98469 20.4656 3.49268 19.2363 2.26335C18.0044 1.03139 16.515 0.650507 14.8339 0.569077C13.3839 0.487647 11.9471 0.500781 10.4998 0.500781C9.04985 0.500781 7.61303 0.487647 6.16571 0.569077C4.4846 0.650507 2.99262 1.03402 1.76331 2.26335C0.53138 3.4953 0.150505 4.98469 0.0690761 6.66582C-0.0123524 8.1158 0.000781304 9.55265 0.000781304 11C0.000781304 12.4474 -0.0123524 13.8868 0.0690761 15.3342C0.150505 17.0153 0.534007 18.5073 1.76331 19.7367C2.99525 20.9686 4.4846 21.3495 6.16571 21.4309C7.61566 21.5124 9.05248 21.4992 10.4998 21.4992C11.9498 21.4992 13.3866 21.5124 14.8339 21.4309C16.515 21.3495 18.007 20.966 19.2363 19.7367C20.4682 18.5047 20.8491 17.0153 20.9305 15.3342C21.0146 13.8868 20.9988 12.45 20.9988 11ZM10.4972 16.3875C7.51584 16.3875 5.10976 13.9814 5.10976 11C5.10976 8.01861 7.51584 5.61248 10.4972 5.61248C13.4785 5.61248 15.8846 8.01861 15.8846 11C15.8846 13.9814 13.4785 16.3875 10.4972 16.3875ZM16.1052 6.65006C15.4092 6.65006 14.847 6.08793 14.847 5.39184C14.847 4.69574 15.4092 4.13361 16.1052 4.13361C16.8013 4.13361 17.3634 4.69574 17.3634 5.39184C17.3636 5.55713 17.3312 5.72083 17.2681 5.87358C17.2049 6.02633 17.1123 6.16512 16.9954 6.282C16.8785 6.39888 16.7397 6.49155 16.587 6.55471C16.4342 6.61787 16.2705 6.65027 16.1052 6.65006Z" fill="#ACD2C7"/>
</svg>
