<svg width="31" height="18" viewBox="0 0 31 18" fill="none" xmlns="http://www.w3.org/2000/svg">
<path fill-rule="evenodd" clip-rule="evenodd" d="M30.2889 1.21886C30.5034 0.516857 30.2889 0 29.2621 0H25.8715C25.0087 0 24.6109 0.446143 24.3952 0.938571C24.3952 0.938571 22.6709 5.04771 20.2284 7.71686C19.4379 8.49086 19.0788 8.73643 18.6474 8.73643C18.4317 8.73643 18.1075 8.49086 18.1075 7.78757V1.21886C18.1075 0.375428 17.8698 0 17.1517 0H11.8198C11.2812 0 10.957 0.390857 10.957 0.762428C10.957 1.56086 12.1789 1.746 12.3042 3.99343V8.87657C12.3042 9.94757 12.1065 10.1417 11.6751 10.1417C10.5256 10.1417 7.72917 6.01329 6.06941 1.28957C5.7478 0.370285 5.4223 0 4.55561 0H1.16248C0.193746 0 0 0.446143 0 0.938571C0 1.81543 1.14956 6.17143 5.35385 11.9327C8.1567 15.867 12.1027 18 15.6973 18C17.853 18 18.1191 17.5269 18.1191 16.7104V13.7366C18.1191 12.789 18.3232 12.6 19.0065 12.6C19.5102 12.6 20.3717 12.8469 22.3841 14.7433C24.6832 16.992 25.0617 18 26.3559 18H29.7465C30.7152 18 31.2008 17.5269 30.9219 16.5909C30.6144 15.66 29.5165 14.3087 28.0609 12.7054C27.2704 11.7926 26.0847 10.809 25.7243 10.3166C25.2218 9.68529 25.3652 9.40371 25.7243 8.84186C25.7243 8.84186 29.8575 3.15129 30.2877 1.21886H30.2889Z" fill="#ACD2C7"/>
</svg>
