<svg width="28" height="28" viewBox="0 0 28 28" fill="none" xmlns="http://www.w3.org/2000/svg">
<path fill-rule="evenodd" clip-rule="evenodd" d="M20.4146 16.7792C20.0662 16.6058 18.3537 15.767 18.0343 15.6513C17.7149 15.5359 17.4828 15.4778 17.2503 15.825C17.0185 16.1718 16.3507 16.9529 16.1475 17.1844C15.9444 17.4155 15.7412 17.4446 15.3928 17.2709C15.0444 17.0975 13.9222 16.7316 12.5915 15.5501C11.5558 14.6313 10.8568 13.4959 10.6537 13.1487C10.4505 12.8016 10.6319 12.6139 10.8064 12.4412C10.963 12.2859 11.1547 12.0363 11.3289 11.8337C11.5031 11.6315 11.5611 11.4866 11.677 11.2555C11.7935 11.0241 11.7353 10.8215 11.648 10.6481C11.5611 10.4744 10.8643 8.76819 10.5742 8.07392C10.2913 7.39812 10.0045 7.48951 9.79023 7.47882C9.5874 7.46877 9.35493 7.46682 9.12279 7.46682C8.89065 7.46682 8.51329 7.55336 8.1939 7.90049C7.8745 8.24763 6.97461 9.08615 6.97461 10.7927C6.97461 12.4988 8.22288 14.1473 8.39707 14.3787C8.57126 14.6102 10.8533 18.112 14.3477 19.6137C15.1789 19.9709 15.8278 20.1841 16.3338 20.3439C17.1682 20.6077 17.9278 20.5705 18.5278 20.4813C19.1969 20.3818 20.5888 19.6425 20.8792 18.8325C21.1696 18.0229 21.1696 17.3289 21.0824 17.1844C20.9951 17.0398 20.763 16.9529 20.4146 16.7792V16.7792ZM14.0586 25.4161H14.0537C11.9745 25.4155 9.93544 24.8596 8.15614 23.8088L7.73289 23.5586L3.3473 24.7037L4.51809 20.4483L4.24233 20.012C3.08261 18.1759 2.46986 16.0538 2.47084 13.8747C2.47344 7.51642 7.67167 2.34343 14.0632 2.34343C17.1581 2.34473 20.0679 3.54592 22.2554 5.72533C24.443 7.90538 25.647 10.8027 25.6464 13.8841C25.6434 20.2431 20.4452 25.4161 14.0586 25.4161ZM23.9204 4.06939C21.2884 1.44659 17.7878 0.00162101 14.0586 3.98784e-07C6.37391 3.98784e-07 0.119825 6.22383 0.116894 13.8741C0.115918 16.3193 0.757953 18.7061 1.97791 20.8103L0 28L7.39038 26.0705C9.42689 27.1761 11.7196 27.7585 14.0527 27.7595H14.0586C14.0593 27.7595 14.0583 27.7595 14.0586 27.7595C21.742 27.7595 27.9967 21.5351 28 13.8851C28.0013 10.1778 26.5528 6.69154 23.9204 4.06939" fill="#ACD2C7"/>
</svg>
