<svg width="34" height="24" viewBox="0 0 34 24" fill="none" xmlns="http://www.w3.org/2000/svg">
<path d="M13.6 17.0831V6.91695L22.4332 12L13.6 17.0831ZM33.2894 3.84376C32.8984 2.38587 31.7466 1.23748 30.2834 0.847779C27.6322 0.139539 17 0.139537 17 0.139537C17 0.139537 6.36783 0.139539 3.7162 0.847779C2.25345 1.23748 1.10122 2.38587 0.710602 3.84376C2.23372e-06 6.4862 0 12 0 12C0 12 2.23372e-06 17.5138 0.710602 20.1562C1.10122 21.6145 2.25345 22.7625 3.7162 23.1522C6.36783 23.8605 17 23.8605 17 23.8605C17 23.8605 27.6322 23.8605 30.2834 23.1522C31.7466 22.7625 32.8984 21.6145 33.2894 20.1562C34 17.5138 34 12 34 12C34 12 34 6.4862 33.2894 3.84376Z" fill="#ACD2C7"/>
</svg>
